# xmcd
#
# Track frame offsets: 
#        150
#        35320
#        59700
#        85077
#        106677
#
# Disc length: 1676 seconds
#
# Revision: 3
# Processed by: cddbd v1.5.2PL0 Copyright (c) Steve Scherf et al.
# Submitted via: ExactAudioCopy v1.0b3
#
DISCID=35068a05
DTITLE=Michael Jackson - Smooth Criminal
DYEAR=1987
DGENRE=Pop
TTITLE0=Smooth Criminal (Extended Dance Mix)
TTITLE1=Smooth Criminal (Extended Dance Mix Radio Edit)
TTITLE2=Smooth Criminal (''Annie'' Mix)
TTITLE3=Smooth Criminal (Dance Mix - Dub Version)
TTITLE4=Smooth Criminal (A Cappella)
EXTD=YEAR: 1987 ID3G: 13
EXTT0=
EXTT1=
EXTT2=
EXTT3=
EXTT4=
PLAYORDER=
